<?xml version="1.0" standalone="no"?>
<!DOCTYPE svg PUBLIC "-//W3C//DTD SVG 20010904//EN"
 "http://www.w3.org/TR/2001/REC-SVG-20010904/DTD/svg10.dtd">
<svg version="1.0" xmlns="http://www.w3.org/2000/svg"
 width="300.000000pt" height="300.000000pt" viewBox="0 0 300.000000 300.000000"
 preserveAspectRatio="xMidYMid meet">
<metadata>
Created by potrace 1.10, written by Peter Selinger 2001-2011
</metadata>
<g transform="translate(0.000000,300.000000) scale(0.100000,-0.100000)"
fill="#000000" stroke="none">
<path d="M624 2850 c-12 -5 -42 -38 -66 -75 -62 -92 -58 -104 76 -224 48 -43
59 -72 46 -120 -31 -112 18 -199 106 -189 20 2 30 9 32 23 8 53 14 66 37 75
33 12 53 4 71 -31 12 -25 12 -33 1 -62 -28 -67 -106 -90 -164 -49 -17 12 -44
22 -60 22 -16 0 -39 7 -52 16 -22 16 -24 15 -68 -27 -58 -57 -87 -107 -129
-224 -41 -115 -55 -144 -83 -169 -30 -27 -26 -44 13 -52 53 -9 89 3 162 57 37
27 72 49 78 49 26 0 56 -32 56 -60 0 -27 -30 -62 -62 -72 -7 -3 -3 -16 11 -35
48 -65 22 -143 -48 -143 -61 0 -97 38 -125 134 l-12 41 -38 -80 c-48 -102 -51
-120 -37 -257 13 -137 42 -254 87 -361 32 -75 34 -85 34 -196 0 -110 -2 -121
-25 -155 -14 -20 -25 -45 -25 -54 0 -10 -16 -34 -36 -53 -62 -60 -77 -107 -24
-79 15 8 19 5 23 -17 3 -16 -1 -36 -9 -47 -8 -11 -14 -29 -14 -38 0 -15 5 -17
25 -12 32 8 32 -6 0 -36 -32 -30 -34 -70 -4 -70 17 0 19 -3 10 -14 -7 -8 -16
-28 -21 -45 -13 -47 9 -50 47 -6 18 21 33 33 33 27 0 -7 6 -12 14 -12 11 0 10
-8 -5 -37 -10 -21 -19 -49 -19 -63 l1 -25 30 33 c29 32 31 33 44 15 19 -24 49
-6 53 32 l4 28 18 -31 c19 -31 59 -50 79 -37 16 9 13 48 -3 71 -13 17 -12 21
2 37 13 15 14 23 4 51 -18 49 -15 51 23 17 34 -29 55 -39 55 -25 0 17 -42 71
-69 89 -31 20 -42 57 -21 70 16 10 12 24 -17 53 -15 15 -27 38 -27 52 -1 16
-11 31 -33 45 -18 11 -32 28 -33 37 0 9 -4 20 -10 23 -27 16 -41 74 -38 156
l3 84 29 -50 c49 -84 235 -265 272 -265 10 0 12 8 8 29 -5 24 -1 32 20 46 22
15 31 15 55 5 65 -26 96 -95 61 -130 -16 -16 -28 -20 -51 -15 -16 4 -29 3 -29
-2 0 -16 95 -101 137 -122 49 -24 98 -36 211 -50 50 -6 99 -19 121 -32 35 -20
71 -64 71 -88 0 -16 -42 -51 -53 -44 -5 3 0 13 12 22 27 21 19 49 -16 57 -54
14 -87 -72 -43 -116 24 -24 43 -25 119 -4 55 16 63 16 110 0 27 -9 61 -16 75
-16 56 0 89 86 47 124 -23 21 -60 18 -75 -7 -9 -15 -6 -21 14 -37 28 -21 22
-37 -8 -21 -49 26 -29 97 38 131 22 11 75 25 118 30 168 21 242 51 310 124 23
25 42 48 42 52 0 3 -13 3 -29 -1 -41 -9 -74 24 -65 63 8 35 51 79 86 87 36 9
72 -26 64 -61 -10 -38 16 -30 81 24 78 65 166 162 200 220 l28 47 3 -84 c3
-75 0 -90 -25 -140 -15 -32 -41 -66 -58 -77 -20 -13 -30 -28 -31 -44 0 -14
-12 -37 -27 -52 -29 -29 -33 -43 -17 -53 13 -8 13 -55 0 -55 -15 0 -90 -80
-90 -96 0 -22 17 -16 52 17 18 18 25 26 15 19 -19 -14 -33 -8 -22 9 3 6 14 15
24 20 15 9 17 6 15 -22 -1 -18 -6 -44 -9 -58 -4 -17 -2 -31 8 -40 12 -13 13
-18 1 -34 -17 -22 -18 -61 -3 -70 20 -13 60 6 79 38 17 28 20 29 20 10 0 -34
11 -53 30 -53 10 0 22 9 25 21 6 19 9 17 40 -18 33 -37 34 -37 35 -13 0 14 -9
41 -19 61 -19 35 -19 36 0 47 15 10 20 8 30 -11 13 -23 38 -46 52 -47 13 0 7
55 -8 77 -13 19 -13 21 5 26 27 7 25 29 -5 65 -14 17 -25 33 -25 37 0 4 11 4
25 1 20 -5 25 -3 25 12 0 9 -7 27 -15 39 -10 14 -13 32 -9 47 5 21 9 24 24 16
53 -28 38 19 -24 79 -20 19 -36 43 -36 53 0 9 -11 34 -25 54 -23 34 -25 45
-25 161 0 110 3 129 24 171 59 117 95 285 99 458 2 97 1 101 -37 179 l-40 80
-12 -41 c-28 -96 -64 -134 -125 -134 -70 0 -97 77 -49 142 14 20 19 33 12 36
-56 18 -80 83 -44 115 28 26 44 21 117 -33 70 -52 113 -66 164 -55 37 8 38 15
7 52 -32 39 -44 62 -81 170 -38 106 -75 170 -133 226 -39 38 -40 39 -66 22
-15 -10 -37 -15 -51 -13 -16 4 -33 -2 -48 -14 -49 -44 -99 -43 -147 2 -41 38
-43 101 -4 127 24 15 29 15 53 2 19 -11 27 -25 31 -54 5 -38 7 -40 42 -43 28
-2 43 3 68 25 38 35 48 84 30 158 -12 49 -11 56 9 87 12 18 38 47 60 63 51 41
91 93 91 122 0 32 -77 142 -107 154 -34 13 -75 -8 -87 -44 -19 -53 32 -88 69
-47 23 26 6 52 -20 30 -20 -17 -32 -5 -15 15 7 9 23 15 34 13 25 -4 34 -51 15
-74 -21 -25 -81 -52 -134 -59 -28 -4 -65 -14 -84 -21 -43 -18 -42 -18 -31 11
12 33 -3 32 -29 -1 -19 -25 -20 -25 -32 -6 -9 15 -18 18 -33 12 -35 -12 -46
-1 -46 46 0 50 -25 84 -62 84 -12 0 -47 -19 -77 -43 -31 -24 -68 -50 -83 -60
-25 -16 -27 -15 -41 7 -12 17 -13 26 -4 35 8 8 8 11 -1 11 -7 0 -12 6 -12 14
0 8 -12 17 -27 21 -16 3 -37 15 -48 24 -27 25 -67 33 -144 31 -52 -1 -71 -6
-92 -25 -15 -12 -43 -25 -63 -29 -25 -5 -34 -11 -29 -21 3 -8 9 -15 15 -15 5
0 6 5 3 10 -8 12 48 5 76 -10 12 -7 20 -7 24 0 3 5 12 10 18 10 7 0 6 -4 -3
-10 -8 -5 -10 -10 -5 -11 6 0 1 -4 -10 -9 -18 -8 -18 -9 -2 -9 10 -1 16 -5 12
-10 -8 -13 26 -19 53 -9 13 4 31 4 39 -1 26 -14 51 -2 49 25 0 13 -5 23 -9 21
-5 -1 -8 -6 -7 -11 2 -9 -19 -26 -32 -26 -10 0 -3 30 8 31 5 0 17 8 27 17 12
11 21 13 25 6 4 -6 14 -13 22 -16 11 -4 9 -8 -9 -15 -14 -5 -20 -12 -15 -15 5
-4 19 -1 32 6 20 11 21 14 8 31 -9 13 -25 19 -51 18 -27 -1 -35 2 -31 13 3 8
1 14 -5 14 -6 0 -8 4 -5 9 4 5 0 12 -6 15 -14 6 56 -3 85 -11 25 -7 21 -22 -5
-16 -20 4 -20 3 5 -15 17 -11 40 -18 57 -16 24 3 28 0 25 -16 -2 -11 0 -22 5
-25 5 -3 7 -12 3 -20 -3 -9 1 -15 11 -15 18 0 22 -25 6 -35 -5 -3 -10 2 -10
12 0 15 -2 16 -10 3 -8 -12 -10 -11 -11 8 -1 12 -3 27 -4 32 -1 6 -3 14 -4 19
-2 18 -27 19 -28 1 -1 -10 4 -21 12 -24 9 -3 12 -16 8 -43 -4 -28 -1 -42 11
-52 11 -10 16 -10 16 -2 0 7 5 9 10 6 8 -5 7 -11 -1 -21 -6 -7 -15 -11 -20 -8
-5 3 -9 -4 -9 -15 0 -12 -3 -21 -7 -21 -8 0 -13 38 -13 101 -1 22 -8 43 -19
53 -15 14 -20 14 -37 1 -19 -14 -19 -14 1 -15 31 0 46 -19 34 -42 -5 -10 -7
-24 -3 -30 4 -7 7 -35 5 -62 -1 -42 -7 -56 -32 -78 -16 -16 -35 -28 -42 -28
-7 0 -12 -13 -12 -30 0 -79 195 -138 315 -95 23 8 46 15 50 15 4 0 31 -21 59
-46 140 -126 241 -344 282 -609 16 -103 16 -367 0 -470 -52 -335 -195 -583
-404 -699 -96 -53 -187 -77 -313 -83 -435 -21 -716 258 -790 784 -22 157 -14
414 16 558 45 209 121 366 240 489 l77 80 58 -18 c100 -32 246 -3 306 60 16
17 33 24 58 24 35 0 36 1 36 38 0 22 -6 47 -14 56 -12 14 -11 18 5 31 15 11
17 16 7 26 -10 10 -13 10 -13 1 0 -7 -11 -12 -24 -12 -14 0 -28 -4 -31 -10 -3
-5 3 -10 13 -10 11 0 23 -7 26 -15 3 -9 1 -15 -7 -14 -27 3 -39 -2 -34 -15 3
-7 1 -18 -5 -24 -16 -16 -58 15 -74 54 -16 37 -9 127 12 161 12 20 12 23 -4
31 -9 5 -22 7 -28 5 -6 -2 -14 3 -18 12 -4 12 0 14 22 10 26 -5 26 -5 3 5 -20
9 -27 7 -43 -10 -21 -22 -37 -28 -19 -6 9 11 8 15 -5 20 -25 9 -36 7 -28 -6 9
-14 16 -68 9 -68 -10 0 -85 48 -136 87 -60 46 -82 52 -117 27 -18 -12 -22 -25
-22 -65 0 -53 -17 -72 -44 -49 -12 9 -17 7 -26 -11 l-12 -22 -23 29 c-27 33
-40 29 -26 -9 l10 -25 -42 18 c-23 10 -64 21 -92 25 -93 13 -173 74 -148 114
15 24 50 26 63 2 12 -23 1 -28 -18 -9 -9 9 -15 9 -24 0 -10 -10 -8 -17 9 -34
19 -19 26 -20 48 -10 64 30 -4 129 -71 102z m851 -20 c11 -5 15 -9 9 -9 -7 -1
-14 -10 -17 -21 -3 -11 -10 -20 -17 -20 -6 0 -8 5 -5 10 9 14 -8 13 -23 -2 -9
-9 -12 -9 -12 0 0 6 -7 9 -17 5 -10 -3 -3 6 16 21 38 29 37 28 66 16z m-252
-132 c23 -15 47 -28 53 -28 6 0 19 -9 29 -20 18 -20 18 -21 -1 -35 -17 -13
-17 -14 -2 -15 23 0 60 -39 75 -78 11 -30 10 -32 -15 -37 -36 -7 -109 -30
-150 -47 -32 -13 -35 -12 -63 20 -31 34 -36 61 -18 79 18 18 2 43 -26 43 -15
0 -25 6 -25 14 0 8 7 13 16 12 9 0 19 5 22 13 2 8 0 11 -6 7 -16 -10 -42 4
-42 24 0 10 -7 23 -15 30 -9 7 -15 29 -15 52 0 78 58 53 80 -35 18 -72 43
-118 77 -144 36 -28 41 -44 19 -62 -12 -10 -13 -8 -9 8 7 28 -32 29 -47 1 -8
-15 -6 -24 10 -40 21 -21 46 -18 68 8 23 30 13 63 -32 112 -29 31 -48 63 -55
91 -6 24 -20 61 -30 82 l-20 38 40 -33 c23 -18 59 -45 82 -60z m673 69 c-9
-12 -24 -52 -35 -87 -15 -48 -31 -76 -61 -105 -27 -27 -40 -48 -40 -66 0 -36
26 -61 59 -57 22 2 26 8 26 33 0 24 -5 31 -24 33 -20 3 -23 0 -18 -18 3 -14 1
-20 -6 -17 -27 8 -18 40 22 78 31 30 45 56 62 109 24 81 48 116 72 107 12 -5
17 -19 17 -51 0 -25 -4 -48 -10 -51 -5 -3 -11 -16 -11 -28 -1 -18 -2 -19 -6
-4 -3 10 -11 16 -18 13 -8 -3 -12 2 -10 12 1 9 0 11 -2 5 -3 -7 -8 -13 -12
-13 -11 0 -1 -49 11 -56 6 -4 8 2 3 15 -4 12 -2 21 4 21 6 0 11 -9 11 -19 0
-26 20 -37 32 -20 8 12 9 11 5 -1 -2 -9 -18 -16 -41 -18 -38 -3 -55 -23 -39
-45 6 -6 7 -22 4 -34 -7 -25 -46 -73 -60 -73 -5 0 -39 11 -75 25 -37 14 -78
25 -91 25 -14 0 -25 4 -25 9 0 5 20 34 45 64 25 31 45 59 45 62 0 14 -28 35
-33 25 -3 -6 -5 -6 -3 0 1 7 6 11 11 11 6 0 17 6 25 13 8 6 27 18 41 25 15 7
51 33 80 57 30 24 55 44 57 44 1 0 -4 -10 -12 -23z m-379 1 c-2 -7 -9 -12 -15
-11 -6 2 -9 -4 -6 -11 3 -8 -3 -19 -14 -25 -27 -14 -25 18 2 41 25 21 39 23
33 6z m-781 -103 c44 -9 94 -21 111 -27 35 -10 54 -29 36 -35 -6 -2 -17 -24
-24 -48 -8 -28 -20 -46 -33 -50 -18 -6 -16 -9 16 -23 21 -10 38 -23 38 -29 0
-7 11 -13 25 -13 18 0 23 4 19 15 -4 9 0 15 8 15 22 0 29 -11 17 -26 -7 -9 -4
-14 13 -19 37 -11 87 -35 93 -45 3 -6 11 -10 16 -10 6 0 7 4 4 10 -8 13 75 64
87 52 5 -5 -16 -25 -57 -52 -36 -24 -91 -70 -122 -104 -30 -34 -50 -51 -44
-39 15 30 14 78 -3 93 -8 6 -12 17 -10 25 4 10 -4 12 -38 8 -53 -7 -88 -37
-88 -75 0 -23 -4 -28 -24 -28 -38 0 -56 10 -71 41 -17 33 -19 80 -5 129 16 55
-3 91 -80 160 -82 73 -96 104 -68 148 l19 30 43 -43 c38 -38 53 -45 122 -60z
m1724 70 c19 -31 20 -36 6 -62 -8 -15 -43 -54 -79 -85 -77 -68 -95 -103 -78
-157 15 -52 14 -96 -4 -130 -15 -31 -33 -41 -71 -41 -19 0 -24 5 -24 28 0 15
-7 36 -15 46 -17 23 -105 40 -105 21 0 -7 -7 -18 -16 -26 -11 -9 -15 -25 -12
-50 l3 -38 -62 62 c-34 34 -59 65 -55 69 23 22 83 46 180 74 7 2 11 8 8 12 -3
5 13 14 35 21 37 11 46 31 13 31 -8 0 -14 3 -14 8 0 4 -3 17 -6 30 -5 19 -2
22 20 22 14 0 26 4 26 10 0 5 7 7 15 4 8 -4 15 -2 15 4 0 5 -7 13 -16 16 -24
9 -64 7 -64 -4 0 -5 7 -7 15 -4 8 4 15 1 15 -5 0 -6 -4 -11 -9 -11 -5 0 -17
-3 -27 -7 -13 -5 -16 -3 -11 10 3 9 2 17 -3 17 -6 0 -10 6 -10 14 0 16 30 27
144 51 70 15 83 22 120 60 22 24 42 44 43 44 1 1 11 -15 23 -34z m-1108 -54
c-4 -11 -7 -10 -13 5 -7 17 -8 16 -8 -5 -1 -18 -4 -22 -12 -14 -8 8 -8 17 0
32 10 17 14 19 25 9 7 -7 11 -19 8 -27z m30 0 c-19 -34 -27 -33 -18 4 4 14 13
25 21 25 12 0 11 -5 -3 -29z m-327 -21 c11 -17 -18 -70 -38 -70 -24 0 -32 26
-19 56 12 24 45 33 57 14z m960 -14 c18 -27 10 -56 -15 -56 -19 0 -46 52 -35
69 11 18 34 12 50 -13z m-1050 -37 c19 -17 35 -34 35 -38 0 -4 -19 -7 -42 -7
-37 1 -44 4 -52 29 -8 22 -7 30 4 37 19 12 14 14 55 -21z m1155 -4 c0 -22 -34
-42 -72 -42 -37 -1 -37 -1 -21 23 32 49 93 61 93 19z m-1062 -48 c2 -12 -3
-17 -17 -17 -12 0 -21 6 -21 13 0 31 32 34 38 4z m942 2 c0 -16 -31 -22 -43
-10 -9 9 -9 14 2 20 16 10 41 4 41 -10z m-880 -9 c0 -13 -7 -20 -19 -20 -22 0
-35 15 -26 30 12 19 45 11 45 -10z m820 0 c0 -23 -35 -28 -43 -6 -7 18 1 26
25 26 11 0 18 -7 18 -20z m-946 -24 c-3 -13 -1 -27 5 -30 20 -13 11 -26 -17
-26 -33 0 -52 16 -52 45 0 29 8 35 42 35 25 0 28 -3 22 -24z m1090 8 c9 -25 7
-33 -13 -53 -23 -23 -66 -18 -57 6 3 8 6 26 6 39 0 20 5 24 29 24 17 0 31 -6
35 -16z m-1040 -19 c7 -20 -23 -33 -34 -14 -5 7 -6 17 -4 21 9 13 32 9 38 -7z
m966 1 c0 -20 -19 -31 -32 -18 -6 6 -7 15 -4 21 10 16 36 13 36 -3z m-1092
-23 c-5 -26 -38 -29 -38 -4 0 15 6 21 21 21 14 0 19 -5 17 -17z m209 -25 c13
-15 11 -19 -26 -42 -46 -29 -59 -33 -41 -11 15 17 7 19 -21 5 -12 -7 -19 -7
-19 -1 0 12 39 25 47 17 8 -8 43 24 43 38 0 6 -7 2 -15 -8 -18 -24 -19 -16 -3
20 8 16 14 21 16 13 3 -8 11 -22 19 -31z m1008 22 c0 -22 -29 -18 -33 3 -3 14
1 18 15 15 10 -2 18 -10 18 -18z m-616 -11 c7 10 9 7 8 -12 -1 -17 -8 -27 -17
-27 -9 0 -16 10 -17 27 -1 19 1 22 8 12 8 -12 10 -12 18 0z m461 -4 c0 -7 -8
-19 -17 -24 -16 -9 -16 -10 -2 -11 17 0 49 -30 32 -30 -25 0 -50 30 -46 55 6
26 33 35 33 10z m-551 -19 c10 -12 8 -18 -11 -30 -54 -34 -149 -42 -198 -15
-17 9 9 21 95 44 66 18 100 18 114 1z m291 -7 c86 -23 102 -34 69 -45 -43 -13
-133 -8 -167 10 -33 17 -33 18 -16 37 21 24 23 24 114 -2z m217 -14 c20 -19
33 -35 28 -35 -6 0 -66 33 -84 46 -4 3 9 24 15 24 3 0 21 -16 41 -35z m-907
16 c0 -11 -25 -21 -51 -21 -21 0 -26 16 -6 23 21 9 57 7 57 -2z m1018 -9 c3
-10 -4 -13 -24 -10 -15 2 -29 9 -32 16 -3 10 4 13 24 10 15 -2 29 -9 32 -16z
m-137 -29 c26 -17 36 -29 28 -34 -14 -9 -91 39 -83 52 7 13 10 12 55 -18z
m-486 -20 c-12 -18 -20 -23 -23 -15 -3 10 -11 7 -28 -9 -30 -28 -41 -20 -13
10 12 12 27 20 35 17 8 -3 19 4 25 15 6 11 13 18 16 15 3 -3 -2 -18 -12 -33z
m473 -34 c-19 -12 -85 32 -74 50 5 7 22 1 47 -16 27 -18 36 -29 27 -34z m-698
44 c0 -14 -64 -50 -79 -45 -9 3 -5 12 15 28 28 22 64 32 64 17z m460 -28 c25
-26 21 -32 -9 -15 -20 10 -36 40 -22 40 4 0 18 -11 31 -25z m195 -25 c11 -18
-26 -10 -55 12 -21 15 -26 24 -18 29 11 7 61 -21 73 -41z m-638 15 c-26 -23
-57 -33 -57 -19 0 13 46 43 65 43 18 0 17 -2 -8 -24z m63 0 c-7 -8 -8 -15 -2
-15 5 0 15 7 22 15 7 8 19 15 28 15 13 0 12 -3 -3 -20 -11 -12 -28 -20 -39
-19 -12 2 -31 -1 -44 -5 -34 -11 -39 0 -11 23 30 25 68 29 49 6z m445 -5 c15
-16 15 -20 3 -20 -8 0 -23 9 -33 20 -15 16 -15 20 -3 20 8 0 23 -9 33 -20z
m62 -5 c26 -22 26 -24 7 -25 -11 0 -31 11 -44 25 -32 34 -2 35 37 0z m-984
-196 c44 -2 63 3 97 29 l34 26 -26 -34 c-67 -89 -125 -241 -160 -414 -33 -161
-33 -462 0 -624 35 -173 92 -318 169 -425 27 -38 29 -46 13 -37 -11 6 -38 10
-58 8 -31 -2 -39 -8 -51 -35 -8 -18 -18 -33 -22 -33 -10 0 -103 112 -149 180
-80 119 -153 293 -184 443 -23 112 -39 301 -31 370 l7 58 23 -50 c54 -116 205
-108 205 11 0 24 -7 54 -16 66 -15 21 -14 24 15 51 49 46 36 120 -24 135 -29
7 -50 -2 -123 -57 -37 -28 -65 -41 -97 -45 -25 -2 -45 -2 -45 2 0 4 16 20 35
37 21 19 57 76 95 149 71 139 96 171 163 210 l51 29 29 -25 c15 -13 38 -25 50
-25z m1607 -36 c16 -18 56 -86 90 -152 38 -74 74 -131 95 -150 19 -17 35 -33
35 -37 0 -4 -20 -4 -45 -2 -42 5 -71 21 -147 80 -87 68 -178 -38 -97 -113 29
-27 30 -30 15 -51 -9 -12 -16 -42 -16 -66 0 -56 33 -92 85 -92 55 0 90 24 118
79 l25 50 6 -62 c8 -70 -7 -242 -30 -357 -43 -210 -138 -408 -274 -567 -56
-66 -80 -78 -80 -40 0 13 -5 28 -12 35 -15 15 -73 16 -100 1 -17 -9 -14 -1 14
37 147 202 224 543 197 874 -17 215 -59 368 -140 519 -29 54 -35 71 -22 65 10
-4 36 -9 59 -12 33 -3 46 1 70 21 l29 25 48 -26 c27 -14 61 -41 77 -59z
m-1871 -1456 c13 -21 21 -41 17 -44 -3 -3 -10 5 -15 18 -11 27 -14 16 -5 -18
4 -16 14 -23 30 -23 45 0 82 -67 40 -71 -37 -4 -78 23 -70 46 3 7 1 16 -5 20
-6 3 -12 16 -12 28 -1 17 -3 15 -9 -8 l-8 -30 -1 30 c-2 28 -3 29 -11 8 -14
-34 -23 -28 -15 10 l6 32 -15 -25 c-9 -14 -15 -19 -16 -11 0 8 10 25 23 39 20
21 22 36 27 150 l5 127 5 -120 c4 -103 8 -125 29 -158z m1999 -1 c12 -16 22
-34 22 -40 -1 -6 -7 0 -16 14 -14 24 -14 24 -9 -15 l5 -40 -15 30 -14 30 -2
-30 -2 -30 -4 29 -5 29 -14 -29 c-8 -15 -13 -33 -10 -40 11 -29 -56 -60 -79
-37 -14 13 -14 18 -2 37 8 12 27 22 46 24 17 2 31 6 31 10 0 4 3 18 6 32 l5
25 -15 -25 c-8 -14 -15 -19 -16 -12 0 7 10 26 23 43 19 27 22 44 24 142 3 152
6 154 12 7 5 -110 9 -129 29 -154z m-528 -71 c-14 -38 6 -78 43 -85 l28 -5
-33 -31 c-60 -57 -85 -65 -268 -89 -144 -18 -199 -40 -225 -88 -17 -33 -18
-80 0 -120 6 -15 4 -16 -21 -7 -19 7 -36 8 -57 1 -26 -10 -28 -9 -21 7 4 9 9
36 12 60 4 38 1 46 -34 80 -43 42 -65 49 -266 76 -116 16 -166 37 -212 85
l-30 31 27 0 c32 0 50 30 45 74 l-4 33 56 -45 c123 -101 265 -147 455 -147
196 0 344 50 457 154 29 27 54 48 56 46 1 -1 -2 -15 -8 -30z m-1570 -19 c-14
-13 -33 -34 -43 -46 -10 -12 -21 -19 -25 -16 -3 4 14 26 38 51 24 25 46 42 49
39 3 -2 -6 -15 -19 -28z m2198 -62 c-8 -7 -88 76 -88 91 0 5 21 -11 47 -37 26
-26 44 -50 41 -54z m-2156 26 c-4 -37 -29 -70 -54 -70 -28 0 -7 91 24 103 28
12 33 6 30 -33z m2073 34 c33 -13 57 -104 27 -104 -25 0 -50 33 -54 70 -4 41
-1 44 27 34z m-2025 -23 c17 -33 12 -53 -12 -49 -23 3 -34 28 -24 54 8 20 23
18 36 -5z m1988 -13 c4 -34 -21 -54 -42 -33 -14 15 -14 18 1 41 19 30 37 27
41 -8z m-1898 -41 c0 -36 -61 -32 -68 5 -2 11 7 14 33 14 27 -1 35 -5 35 -19z
m1835 3 c0 -18 -29 -34 -49 -27 -9 4 -16 14 -16 24 0 14 8 18 32 17 20 -1 33
-6 33 -14z m-1791 -13 c12 -19 3 -32 -19 -24 -17 7 -21 51 -3 45 6 -2 16 -12
22 -21z m1713 6 c0 -17 -14 -33 -29 -33 -12 0 -9 25 4 38 17 17 25 15 25 -5z
m-1860 -85 c-29 -19 -56 27 -36 63 11 21 12 20 29 -17 11 -25 13 -41 7 -46z
m63 42 c0 -16 -20 -32 -34 -27 -20 8 -30 32 -22 53 5 13 9 13 31 -3 13 -10 24
-20 25 -23z m1910 17 c0 -40 -44 -65 -56 -32 -4 9 4 23 17 35 31 25 39 25 39
-3z m40 4 c13 -25 13 -33 -3 -55 -8 -10 -19 -15 -30 -11 -15 6 -15 10 -1 36 8
16 12 34 9 39 -3 6 -2 10 4 10 6 0 15 -9 21 -19z m-2085 -34 c-16 -25 -43 -42
-53 -33 -2 3 10 19 27 37 36 36 51 33 26 -4z m2163 -15 c10 -15 11 -22 3 -22
-15 0 -61 46 -61 61 0 16 39 -11 58 -39z m-1957 22 c9 -11 10 -20 2 -32 -14
-22 -34 -26 -57 -9 -15 11 -17 17 -7 35 14 26 43 29 62 6z m1770 -6 c10 -18 8
-24 -7 -35 -40 -29 -84 6 -54 42 18 22 48 18 61 -7z m-1946 -29 c5 -14 2 -25
-6 -30 -22 -14 -29 -11 -29 14 0 40 24 51 35 16z m2089 5 c10 -26 7 -44 -8
-44 -20 0 -29 16 -21 40 8 24 21 26 29 4z m-2014 -39 c0 -39 -21 -55 -45 -35
-22 18 -18 44 8 56 35 18 37 16 37 -21z m1953 19 c23 -8 19 -43 -6 -58 -15 -9
-22 -7 -34 11 l-15 23 -20 -25 c-21 -27 -59 -33 -77 -11 -18 21 -2 46 28 46
15 0 33 6 40 13 11 10 14 10 18 0 7 -18 23 -16 23 3 0 9 5 13 13 10 6 -3 20
-9 30 -12z m-1908 -4 c3 -5 19 -10 35 -10 31 0 47 -25 29 -46 -25 -30 -75 -9
-92 38 -9 25 14 40 28 18z m140 -56 c11 -17 12 -24 4 -19 -23 13 -59 48 -59
57 0 15 37 -10 55 -38z m-275 9 c0 -20 -28 -53 -46 -53 -23 0 -24 17 -3 44 23
29 49 34 49 9z m2139 -9 c21 -26 20 -44 -1 -44 -19 0 -48 32 -48 52 0 26 25
22 49 -8z m-2078 -14 c12 0 11 -37 -1 -61 -23 -43 -59 -6 -45 48 4 17 11 23
21 19 9 -3 20 -6 25 -6z m68 -12 c22 -59 23 -68 5 -75 -21 -8 -44 21 -44 57 0
44 25 55 39 18z m1869 -15 c3 -32 -21 -67 -42 -60 -22 8 5 102 27 95 6 -3 13
-18 15 -35z m82 -3 c0 -55 -31 -66 -55 -20 -19 38 -19 39 8 49 26 10 47 -3 47
-29z m-1862 -1 c-4 -43 -34 -61 -54 -35 -16 22 -19 60 -4 51 5 -3 18 -1 27 4
29 17 34 13 31 -20z m1705 17 c21 0 22 -25 3 -52 -21 -27 -50 -7 -54 36 -3 28
-1 32 15 25 10 -4 26 -8 36 -9z m-1923 -21 c0 -13 -30 -62 -44 -74 -23 -20
-21 6 4 47 17 28 40 43 40 27z m2122 -17 c8 -13 18 -34 23 -48 l7 -25 -25 25
c-27 27 -45 70 -29 70 5 0 16 -10 24 -22z m-2061 -65 c-11 -22 -27 -45 -36
-53 -14 -12 -15 -10 -5 15 13 34 50 88 57 82 2 -3 -5 -23 -16 -44z m2009 -37
c9 -25 8 -27 -6 -15 -16 13 -54 82 -54 96 1 15 50 -52 60 -81z m-1954 39 c7
-26 -11 -59 -27 -49 -10 6 -12 58 -2 67 13 13 23 7 29 -18z m98 3 c22 -30 20
-48 -4 -48 -23 0 -60 33 -60 55 0 23 47 18 64 -7z m1726 9 c0 -21 -39 -57 -60
-57 -24 0 -26 18 -4 48 16 24 64 31 64 9z m68 -16 c2 -12 1 -29 -2 -38 -9 -22
-36 2 -36 32 0 41 32 47 38 6z"/>
<path d="M1093 2670 c3 -11 1 -18 -4 -14 -5 3 -9 0 -9 -5 0 -6 9 -11 21 -11
15 0 19 4 15 16 -3 9 -6 20 -6 25 0 5 -5 9 -11 9 -6 0 -9 -9 -6 -20z"/>
<path d="M792 2605 c-15 -8 -20 -15 -13 -19 6 -4 16 -4 23 0 7 4 8 3 4 -4 -5
-8 3 -12 23 -12 24 0 31 4 31 20 0 11 -5 20 -11 20 -6 0 -9 -7 -5 -15 3 -8 1
-15 -4 -15 -6 0 -10 6 -10 14 0 21 -12 24 -38 11z"/>
<path d="M850 2431 c0 -5 8 -12 18 -14 9 -3 4 -5 -12 -4 -16 1 -31 -3 -33 -10
-3 -7 7 -11 27 -11 35 1 43 9 34 32 -7 17 -34 22 -34 7z"/>
<path d="M928 2402 c-7 -26 17 -45 32 -27 7 8 10 20 7 27 -4 8 -6 7 -6 -4 -1
-10 -6 -18 -12 -18 -6 0 -8 9 -4 20 3 11 2 20 -3 20 -5 0 -12 -8 -14 -18z"/>
<path d="M2132 2416 c-1 -21 2 -25 29 -24 34 1 48 15 24 25 -10 3 -21 0 -25
-7 -5 -8 -9 -9 -14 -1 -4 6 -2 11 3 11 6 0 11 5 11 10 0 22 -26 8 -28 -14z"/>
<path d="M2050 2405 c-9 -11 -8 -18 9 -36 18 -19 21 -20 21 -6 0 9 5 17 10 17
7 0 7 6 0 20 -13 24 -23 25 -40 5z"/>
<path d="M692 2083 c4 -23 36 -27 90 -12 l43 13 -45 7 c-76 13 -92 11 -88 -8z"/>
<path d="M625 1980 c-11 -18 6 -30 45 -30 36 0 97 16 89 24 -12 10 -128 16
-134 6z"/>
<path d="M518 1413 c-25 -31 28 -43 93 -22 67 23 63 34 -12 34 -43 0 -75 -5
-81 -12z"/>
<path d="M529 1304 c-14 -17 -3 -34 20 -34 26 0 121 30 121 38 0 13 -130 9
-141 -4z"/>
<path d="M543 1194 c-11 -29 13 -38 59 -25 24 7 54 19 68 27 23 12 19 13 -48
14 -57 0 -74 -3 -79 -16z"/>
<path d="M630 1101 c-41 -5 -56 -10 -58 -23 -5 -25 40 -23 96 2 41 19 55 32
30 28 -7 -1 -38 -4 -68 -7z"/>
<path d="M675 1003 c-58 -7 -75 -13 -75 -28 0 -21 43 -19 90 5 40 21 51 31 28
29 -7 -1 -26 -4 -43 -6z"/>
<path d="M705 906 c-33 -8 -51 -18 -53 -29 -2 -10 3 -17 13 -17 19 0 91 36
100 50 7 12 6 12 -60 -4z"/>
<path d="M746 817 c-46 -14 -60 -37 -22 -37 14 0 38 11 53 25 31 27 26 29 -31
12z"/>
<path d="M802 739 c-39 -17 -50 -39 -19 -39 15 0 74 47 67 53 -3 2 -24 -4 -48
-14z"/>
<path d="M2230 2091 l-35 -7 43 -13 c53 -15 87 -11 87 9 0 17 -40 22 -95 11z"/>
<path d="M2295 1981 l-50 -6 34 -12 c19 -7 52 -13 73 -13 32 0 39 3 36 18 -4
19 -21 22 -93 13z"/>
<path d="M2346 1419 c6 -11 95 -39 121 -39 23 0 42 24 29 37 -8 8 -155 10
-150 2z"/>
<path d="M2356 1303 c20 -15 79 -33 107 -33 17 0 35 26 25 36 -3 3 -38 6 -78
7 -62 3 -69 1 -54 -10z"/>
<path d="M2333 1205 c2 -5 29 -18 60 -29 46 -15 60 -16 72 -6 26 22 -1 38 -71
42 -39 2 -63 -1 -61 -7z"/>
<path d="M2310 1104 c0 -10 83 -44 110 -44 30 0 44 26 18 34 -20 7 -128 15
-128 10z"/>
<path d="M2280 1005 c0 -10 81 -45 105 -45 26 0 36 27 13 34 -21 7 -118 15
-118 11z"/>
<path d="M2257 908 c21 -25 92 -53 104 -41 17 17 3 30 -40 37 -22 3 -48 9 -58
13 -15 6 -16 4 -6 -9z"/>
<path d="M2210 826 c0 -11 64 -46 83 -46 30 0 18 28 -15 35 -18 4 -41 9 -50
11 -10 3 -18 3 -18 0z"/>
<path d="M2188 729 c34 -30 62 -38 62 -16 0 6 -21 20 -47 29 l-48 17 33 -30z"/>
<path d="M1490 375 c-7 -8 -10 -22 -6 -30 7 -20 42 -19 50 1 8 22 8 22 -13 33
-14 8 -22 7 -31 -4z"/>
<path d="M1415 2670 c-4 -7 3 -8 21 -4 19 5 25 4 20 -5 -4 -6 -14 -11 -22 -11
-8 0 -14 -4 -14 -10 0 -5 6 -10 13 -10 8 0 7 -4 -3 -10 -8 -5 -10 -10 -4 -10
5 0 19 7 30 15 10 8 22 15 27 15 12 0 8 -58 -5 -63 -8 -3 -6 -6 5 -6 13 -1 17
7 17 38 0 23 -7 46 -16 55 -18 18 -60 21 -69 6z"/>
<path d="M1530 2668 c0 -20 13 -34 35 -40 15 -4 21 0 22 13 1 10 -6 20 -15 22
-9 2 -5 3 11 2 15 -1 27 2 27 7 0 4 -18 8 -40 8 -25 0 -40 -5 -40 -12z"/>
<path d="M1080 2305 c-7 -8 -8 -15 -3 -15 10 0 33 -43 33 -61 0 -12 -57 17
-62 32 -2 7 -8 6 -16 -3 -10 -12 -3 -19 38 -38 28 -13 53 -21 56 -17 3 3 -3
31 -13 62 -17 48 -22 54 -33 40z"/>
<path d="M1351 2295 c-218 -61 -373 -271 -425 -575 -56 -327 -3 -677 134 -880
117 -173 314 -260 522 -231 235 33 386 177 472 451 44 139 59 262 53 450 -13
409 -151 672 -405 771 -74 29 -268 37 -351 14z m149 -301 l0 -306 -38 31 c-45
35 -69 33 -120 -11 -40 -34 -90 -38 -117 -8 -14 16 -16 23 -7 32 7 7 12 43 12
90 0 72 -2 79 -25 94 -19 13 -23 20 -14 30 6 7 9 23 7 36 -2 19 -9 23 -36 21
-66 -3 -153 -101 -122 -138 7 -9 19 -14 27 -11 21 8 15 -33 -12 -84 -51 -95
-64 -127 -75 -189 -6 -36 -9 -80 -5 -98 9 -49 -2 -73 -32 -73 l-26 0 6 118
c24 448 201 718 499 761 35 4 66 9 71 10 4 0 7 -137 7 -305z m201 266 c203
-75 335 -284 378 -595 16 -110 13 -335 -4 -444 -20 -122 -30 -139 -39 -67 -5
46 -2 64 14 96 26 51 25 72 -5 108 -20 24 -25 41 -25 83 0 30 -3 78 -6 107
l-7 52 -43 0 -42 0 -7 -66 c-7 -61 -9 -65 -29 -59 -48 15 -132 16 -173 2 l-42
-14 -7 68 -7 69 -42 0 c-41 0 -43 -1 -49 -37 -3 -21 -6 -72 -6 -114 0 -73 -6
-89 -36 -89 -2 0 -4 211 -4 468 l0 468 63 -7 c35 -4 88 -17 118 -29z m-511
-281 c0 -20 -21 -49 -36 -49 -9 0 -29 -13 -46 -30 -50 -50 -79 -31 -41 27 30
46 123 86 123 52z m-12 -86 c2 -7 -3 -13 -12 -13 -9 0 -16 -3 -16 -7 0 -5 -11
-9 -25 -9 -31 -2 -31 0 -3 26 24 22 49 23 56 3z m38 -18 c4 -8 0 -22 -7 -31
-10 -13 -10 -17 2 -25 11 -7 9 -9 -8 -9 -13 0 -23 -4 -23 -10 0 -16 -18 -12
-40 10 -25 25 -26 40 -2 40 11 0 27 9 37 20 22 24 34 25 41 5z m-100 -63 c-3
-3 3 -15 15 -28 11 -12 22 -30 23 -40 2 -11 10 -19 19 -19 9 0 16 -3 14 -7 -1
-3 6 -15 17 -27 17 -19 18 -28 1 -76 -3 -11 1 -8 10 8 8 15 22 27 30 27 21 0
19 -9 -7 -32 -13 -11 -18 -17 -12 -14 12 6 28 -34 18 -43 -3 -3 -29 20 -57 52
-56 62 -67 68 -67 36 0 -11 4 -17 10 -14 13 8 46 -24 54 -52 9 -29 -10 -30
-40 -2 l-21 20 4 -25 c4 -20 1 -26 -13 -26 -16 0 -16 -2 -4 -10 8 -5 17 -5 20
0 7 11 76 17 86 8 10 -11 -38 -31 -77 -32 -48 -1 -55 7 -40 41 9 19 9 29 2 31
-21 7 -33 81 -19 113 7 16 16 29 20 29 12 0 29 40 22 51 -3 6 -14 -2 -25 -20
-10 -17 -21 -31 -24 -31 -4 0 -3 5 0 10 3 6 2 10 -3 10 -6 0 -8 9 -5 20 3 11
9 17 14 14 5 -3 14 -2 20 2 8 5 8 9 -1 14 -8 5 -9 16 -5 30 7 21 8 22 17 6 5
-10 7 -20 4 -24z m89 -22 c-3 -5 -1 -10 4 -10 13 0 14 -10 3 -28 -11 -16 -39
-6 -53 19 -7 14 -6 17 5 13 8 -3 17 -1 21 5 3 6 11 11 16 11 6 0 7 -4 4 -10z
m256 -87 c21 -16 39 -30 39 -33 0 -3 -38 -43 -84 -89 l-85 -84 -25 16 c-30 20
-59 71 -54 95 2 13 12 16 44 14 32 -3 48 2 71 22 36 30 50 33 55 9 2 -12 -17
-27 -72 -55 -41 -20 -69 -37 -63 -38 7 0 43 15 80 33 79 38 126 77 93 77 -6 0
-29 9 -50 19 -22 11 -42 16 -45 11 -3 -4 2 -11 11 -14 15 -6 15 -8 -1 -26 -17
-19 -45 -27 -45 -13 0 3 8 16 17 27 10 12 3 8 -15 -8 -30 -28 -33 -29 -58 -15
l-27 14 43 6 c26 3 50 14 60 26 12 15 24 19 45 15 19 -3 26 -1 21 7 -12 18 3
13 45 -16z m-427 -25 c-5 -9 -2 -9 9 1 15 12 17 9 19 -33 1 -25 2 -53 2 -63 1
-9 -5 -18 -13 -21 -11 -4 -13 2 -8 27 5 22 3 30 -4 25 -6 -3 -9 -19 -7 -35 3
-20 -1 -34 -14 -46 -18 -16 -26 -39 -9 -29 4 3 13 -6 19 -19 8 -16 17 -23 27
-19 14 6 14 8 0 24 -15 17 -20 42 -9 53 4 3 15 -4 24 -16 15 -18 28 -22 70
-21 61 1 42 -17 -21 -20 -21 0 -41 -6 -43 -13 -4 -9 4 -11 27 -7 27 5 29 4 14
-6 -10 -7 -29 -9 -42 -6 -19 5 -22 3 -18 -14 3 -11 0 -34 -6 -52 -8 -21 -8
-35 -1 -42 7 -7 10 -4 10 9 0 17 2 18 10 5 5 -8 10 -11 10 -6 0 11 30 -14 30
-25 0 -4 -15 -7 -32 -5 -38 4 -98 25 -98 34 1 4 14 18 30 32 27 22 44 70 20
55 -6 -4 -17 -2 -25 5 -26 22 -3 240 26 240 6 0 7 -6 3 -12z m466 -233 c0
-204 -6 -237 -32 -180 -8 19 -8 28 2 40 10 13 13 54 11 170 -2 139 1 175 15
175 2 0 4 -92 4 -205z m149 30 l-1 -115 -37 6 c-20 4 -37 8 -39 9 -1 1 1 50 5
108 l6 107 34 0 33 0 -1 -115z m351 56 c0 -32 3 -78 6 -102 l6 -44 -43 3 -44
4 3 99 3 99 35 0 34 0 0 -59z m-555 9 c0 -33 -3 -40 -20 -41 -20 0 -20 0 0 -9
19 -8 19 -9 -2 -9 -19 -1 -23 4 -23 31 0 28 23 68 39 68 4 0 6 -18 6 -40z
m-201 -15 c-5 -11 -2 -13 11 -9 40 16 6 -22 -44 -49 -29 -16 -50 -31 -48 -33
8 -9 62 20 96 50 19 17 31 26 27 19 -6 -11 29 -30 47 -25 14 4 7 -64 -10 -95
-30 -55 -84 -125 -90 -119 -4 3 2 19 13 34 34 46 39 59 16 38 -14 -12 -28 -16
-39 -11 -15 6 -10 11 23 25 49 21 74 53 74 94 0 27 -1 28 -18 13 -9 -8 -30
-21 -46 -27 -16 -6 -26 -13 -23 -16 3 -3 16 -1 29 6 18 9 17 6 -7 -15 -22 -19
-24 -24 -10 -19 11 4 30 18 42 33 13 14 23 20 23 13 0 -22 -56 -72 -82 -73
-42 -2 -53 2 -77 29 -13 16 -21 20 -18 10 3 -9 1 -19 -6 -21 -7 -2 7 -12 31
-22 88 -36 84 -112 -10 -171 -22 -14 -42 -34 -45 -44 -4 -17 -30 -30 -61 -30
-6 0 8 20 32 44 52 51 67 90 43 114 -21 20 -32 10 -18 -17 9 -16 8 -28 -6 -53
l-18 -33 -3 40 c-2 22 -9 47 -16 55 -7 8 -16 23 -19 33 -6 15 0 17 45 17 61 0
88 -19 89 -64 0 -26 2 -28 8 -11 11 27 -6 70 -33 89 -40 26 -56 47 -57 74 l-1
27 -8 -25 c-8 -24 -8 -23 -9 8 -1 24 3 32 16 32 19 0 103 52 128 80 21 24 37
26 29 5z m163 -73 c36 -42 76 -112 63 -112 -6 0 -8 -5 -4 -12 5 -7 3 -8 -5 -4
-22 14 -51 -23 -44 -55 3 -17 0 -35 -7 -44 -7 -8 -10 -25 -6 -39 5 -20 0 -28
-27 -43 -18 -11 -57 -23 -86 -26 -45 -5 -61 -3 -93 15 -33 19 -42 20 -59 9
-27 -16 -35 -8 -13 13 18 18 76 16 82 -4 2 -5 13 -15 25 -21 16 -9 14 -3 -10
22 l-32 34 35 38 c23 24 44 37 62 37 26 1 26 1 8 15 -20 15 -20 15 0 15 12 0
15 3 7 8 -8 5 -2 23 22 60 18 29 36 48 40 43 3 -6 3 -15 0 -21 -3 -5 1 -20 10
-34 24 -36 10 -70 -46 -117 -49 -41 -76 -76 -66 -86 3 -3 22 14 42 36 41 45
55 51 55 23 0 -19 18 -42 34 -42 5 0 1 9 -9 20 -19 21 -17 36 10 109 16 45 16
45 -14 104 -17 33 -31 66 -31 73 0 23 30 16 57 -14z m483 3 c22 -12 26 -19 22
-50 -4 -32 -7 -36 -26 -31 -58 17 -103 17 -146 1 -85 -31 -80 -32 -80 18 0 36
5 49 19 57 58 30 157 33 211 5z m-870 -35 c0 -4 -9 -15 -20 -25 -17 -16 -20
-16 -20 -2 0 28 11 46 26 40 8 -3 14 -8 14 -13z m-60 -45 c0 -20 8 -29 33 -40
l32 -14 -46 -1 c-40 0 -48 3 -53 23 -11 41 -7 57 14 57 15 0 20 -7 20 -25z
m875 -25 c-27 -30 -10 -71 34 -84 l33 -10 -6 -59 c-3 -33 -6 -71 -6 -85 0 -22
-3 -24 -32 -18 -18 4 -42 6 -53 6 -55 -3 -106 -2 -111 3 -3 2 -8 37 -11 76 -6
68 -5 71 16 71 35 0 73 49 69 87 -4 33 -4 33 41 33 44 0 44 0 26 -20z m197 3
c11 -10 18 -30 18 -53 0 -45 -9 -56 -26 -32 -10 14 -28 17 -91 17 -64 0 -78 3
-81 16 -2 11 8 20 28 27 16 6 33 18 36 27 9 21 91 20 116 -2z m-342 -11 c45
-6 55 -10 55 -26 0 -10 -12 -28 -27 -39 -24 -18 -29 -18 -44 -6 -15 12 -17 12
-9 0 6 -11 3 -12 -21 -5 -16 4 -46 8 -66 8 -41 0 -45 5 -26 36 14 21 6 36 -12
25 -8 -5 -10 -22 -7 -45 2 -21 1 -44 -4 -51 -10 -16 -11 -10 -9 51 2 58 21 74
75 65 22 -4 65 -10 95 -13z m-670 -42 c0 -5 -20 -10 -45 -10 -25 0 -45 5 -45
10 0 6 20 10 45 10 25 0 45 -4 45 -10z m430 -11 c0 -29 18 -59 35 -59 8 0 15
-4 15 -10 0 -5 -17 -10 -37 -10 l-38 0 3 50 c4 48 22 73 22 29z m568 -106 c3
-91 -2 -97 -69 -87 l-39 7 0 71 c0 81 5 92 40 98 56 9 65 -2 68 -89z m-976 70
c18 -16 24 -66 12 -98 -4 -8 -20 -23 -36 -31 -16 -8 -27 -18 -24 -22 3 -4 -3
-8 -13 -9 -14 -1 -20 13 -30 74 -7 42 -15 82 -18 90 -8 20 85 18 109 -4z m603
-3 c24 -9 25 -13 25 -86 l0 -77 -37 7 c-21 3 -47 6 -58 6 -18 0 -20 6 -17 72
2 40 5 79 8 87 4 13 26 11 79 -9z m-103 -96 c-6 -88 -22 -92 -22 -5 0 54 3 72
13 68 8 -3 11 -22 9 -63z m-44 -45 c3 -91 -18 -172 -57 -221 -17 -20 -18 -21
-17 -3 1 11 7 30 14 43 11 18 11 26 1 38 -15 19 -30 96 -16 87 5 -3 8 0 5 8
-8 24 -89 37 -118 19 -23 -14 -6 -22 25 -10 30 11 55 -1 55 -27 0 -23 -32 -89
-37 -75 -3 6 -8 12 -13 12 -10 0 -8 -20 4 -38 6 -10 12 -8 27 9 10 12 19 17
19 10 0 -7 5 -9 11 -5 14 8 9 -45 -6 -65 -7 -11 -7 -13 3 -7 22 13 13 -29 -11
-50 -42 -36 -50 -39 -42 -13 5 19 4 21 -4 9 -9 -12 -11 -10 -11 13 0 31 8 34
26 10 7 -10 15 -15 18 -12 4 3 -5 18 -20 32 -14 14 -24 34 -23 44 2 10 -11 39
-28 65 -29 46 -43 52 -43 19 0 -13 2 -13 9 -2 8 13 12 -6 12 -59 -1 -85 0 -91
10 -85 5 4 9 -5 9 -19 0 -14 4 -27 9 -30 5 -4 7 4 4 16 -4 19 -3 20 6 8 25
-35 4 -53 -80 -66 -45 -7 -53 9 -19 39 20 17 26 57 22 147 l-1 35 15 -35 c14
-34 14 -34 9 -5 -2 17 -7 40 -11 52 -4 14 1 28 13 40 21 22 27 43 14 43 -9 0
-24 -17 -27 -30 0 -3 -3 -12 -7 -20 -3 -8 -7 -24 -9 -35 -3 -18 -11 -20 -88
-20 -83 0 -118 7 -132 29 -5 8 -8 7 -8 -2 0 -7 6 -15 14 -18 8 -3 13 -12 12
-20 -3 -19 -21 -18 -21 0 0 8 -4 18 -8 22 -4 4 -7 16 -7 26 0 10 -4 18 -9 18
-5 0 -11 8 -13 18 -3 14 8 19 67 28 63 10 74 9 107 -8 30 -16 41 -17 58 -8 12
6 19 17 17 24 -3 8 12 12 50 14 63 3 136 38 142 68 4 25 20 35 51 32 24 -3 25
-5 28 -89z m-305 2 c22 -37 21 -41 -2 -41 -22 0 -64 47 -55 61 11 18 40 8 57
-20z m-123 -16 c-30 -8 -55 -14 -56 -15 0 0 -1 6 -1 13 0 8 19 13 56 14 l56 1
-55 -13z m544 -16 c19 -9 32 -9 54 0 22 9 35 9 55 0 20 -9 33 -9 57 1 24 10
36 10 60 0 24 -10 37 -10 57 -1 20 9 33 9 55 0 22 -9 35 -9 58 1 17 7 33 10
36 7 4 -3 -10 -13 -30 -21 -29 -12 -42 -13 -62 -4 -19 9 -33 9 -58 0 -26 -10
-40 -10 -60 -1 -20 10 -32 9 -53 0 -20 -9 -33 -9 -54 0 -21 8 -37 8 -60 0 -22
-8 -37 -8 -51 0 -20 11 -46 9 -80 -6 -10 -4 -18 -3 -18 2 0 8 40 29 62 32 4 1
18 -4 32 -10z m53 -33 c18 7 39 7 60 0 23 -6 41 -6 58 2 19 9 31 9 50 0 18 -8
35 -8 59 -1 22 7 39 7 51 1 9 -6 36 -7 59 -4 32 6 38 4 29 -5 -11 -11 -27 -13
-103 -10 -14 0 -42 0 -62 0 -21 0 -47 0 -58 0 -11 0 -37 0 -57 0 -21 0 -49 0
-63 0 -27 -1 -66 0 -102 2 -13 1 -33 -2 -45 -6 -13 -4 -23 -3 -23 2 0 17 63
30 92 19 18 -7 36 -7 55 0z m-246 -70 c5 -6 9 -19 8 -30 0 -15 -2 -17 -6 -6
-3 8 -12 23 -20 32 -10 11 -12 24 -7 40 l8 23 4 -25 c2 -14 8 -29 13 -34z
m199 34 c13 -7 27 -6 45 2 20 9 34 9 59 0 26 -10 40 -10 60 -1 20 10 32 9 53
0 20 -9 33 -9 54 0 21 8 37 8 60 0 21 -7 37 -7 50 0 13 6 19 6 19 0 0 -20 -38
-32 -65 -19 -17 8 -35 8 -58 2 -21 -7 -42 -7 -59 0 -19 7 -37 7 -55 0 -18 -7
-39 -7 -60 0 -23 6 -41 6 -58 -2 -19 -9 -31 -9 -51 0 -19 9 -33 9 -54 1 -36
-13 -49 -4 -18 14 28 15 53 16 78 3z m-34 -159 c51 -58 110 -90 190 -104 l67
-13 -51 -33 c-84 -53 -161 -74 -282 -75 -123 -1 -184 15 -279 71 l-63 38 55 7
c70 9 146 47 197 98 41 41 80 107 81 137 0 10 11 -5 23 -33 13 -28 41 -70 62
-93z m57 128 c32 1 66 1 105 0 15 -1 38 -1 52 0 14 0 42 0 63 0 20 0 47 1 60
2 12 0 38 -3 57 -9 28 -7 32 -11 17 -17 -9 -4 -31 -2 -48 5 -23 10 -36 10 -56
1 -20 -9 -33 -9 -55 0 -22 9 -35 9 -55 0 -20 -9 -33 -9 -55 0 -22 9 -35 9 -58
-1 -24 -10 -36 -10 -59 0 -21 8 -35 9 -49 1 -28 -15 -37 0 -10 16 13 7 32 10
43 7 11 -4 32 -6 48 -5z m-325 -72 c3 -29 1 -38 -9 -35 -7 2 -13 25 -14 57 -2
40 0 49 8 35 6 -10 12 -35 15 -57z m-131 49 l42 0 -2 -58 c-1 -32 -3 -58 -4
-58 -1 0 -13 4 -27 10 -19 7 -26 17 -27 37 -2 24 -2 25 -6 6 -5 -29 -23 -30
-23 -2 0 25 -17 59 -30 59 -5 0 -1 -13 8 -29 16 -29 16 -31 -6 -61 -21 -28
-22 -31 -5 -37 59 -21 80 -32 80 -46 0 -9 -10 -14 -24 -14 -39 0 -147 157
-124 180 18 18 61 -19 61 -52 0 -16 -6 -32 -12 -34 -10 -4 -10 -6 0 -6 20 -1
34 47 20 72 -22 40 -19 50 10 41 15 -5 46 -8 69 -8z m571 -15 c6 0 31 0 55 0
23 0 51 1 62 1 72 3 96 0 107 -11 11 -11 8 -12 -17 -7 -16 4 -39 6 -50 5 -11
-1 -36 -1 -55 -1 -19 1 -44 1 -55 0 -32 -1 -197 1 -228 2 -15 1 -25 5 -22 9 2
5 46 7 97 5 51 -2 99 -4 106 -3z m-110 -32 c12 1 36 1 52 1 17 0 41 0 55 0 14
0 39 0 55 0 17 0 40 0 53 -1 12 0 33 2 47 6 15 4 32 1 43 -7 17 -13 15 -14
-20 -16 -54 -2 -87 -2 -238 -1 -19 0 -43 -1 -52 -1 -33 -2 -83 12 -83 22 0 7
12 8 33 3 17 -4 42 -7 55 -6z m27 -31 c19 9 31 9 51 0 19 -9 33 -9 56 0 21 8
37 8 49 1 11 -5 41 -7 69 -3 37 5 50 3 50 -6 0 -7 -7 -10 -15 -6 -8 3 -26 1
-39 -6 -18 -7 -33 -7 -55 0 -22 8 -40 8 -61 0 -22 -7 -38 -7 -59 1 -21 9 -34
9 -54 0 -20 -9 -33 -9 -57 1 -41 17 -38 31 5 17 25 -7 42 -7 60 1z m-500 -45
c46 -11 50 -14 36 -22 -17 -11 -103 17 -95 31 3 5 13 6 23 3 9 -4 25 -9 36
-12z m555 7 c12 -6 28 -6 49 1 22 8 40 8 62 0 22 -7 37 -8 51 0 10 6 27 8 36
6 13 -3 9 -7 -13 -16 -16 -7 -37 -12 -45 -11 -8 1 -34 1 -57 1 -24 0 -51 1
-60 1 -10 0 -42 0 -70 0 -29 0 -53 4 -53 10 0 5 4 7 8 4 4 -2 14 -1 22 5 19
12 47 11 70 -1z m23 -31 c60 3 157 -1 157 -5 0 -2 -9 -8 -21 -14 -16 -9 -28
-9 -50 0 -22 9 -36 10 -56 1 -21 -8 -38 -8 -71 2 -23 7 -39 16 -35 21 4 4 17
4 28 0 11 -4 32 -6 48 -5z m102 -39 c15 -6 6 -9 -33 -9 -33 -1 -51 3 -47 9 7
12 52 12 80 0z"/>
<path d="M1223 2153 c-22 -8 -14 -40 13 -58 20 -13 23 -19 13 -26 -8 -4 -19
-3 -26 3 -17 13 -31 2 -16 -13 6 -6 21 -9 34 -7 32 4 38 42 10 58 -27 14 -27
34 0 27 13 -3 19 -1 16 6 -4 13 -26 18 -44 10z"/>
<path d="M1326 2135 c3 -13 1 -38 -4 -55 -9 -24 -8 -30 4 -30 9 0 14 11 15 33
l1 32 11 -27 c14 -36 20 -35 40 5 l18 32 -5 -37 c-4 -33 -2 -38 16 -38 17 0
18 2 8 15 -8 9 -11 30 -7 55 7 52 -10 52 -30 0 l-16 -40 -18 40 c-20 44 -43
55 -33 15z"/>
<path d="M1778 2093 c-3 -37 -4 -38 -48 -44 l-45 -5 45 -5 45 -4 3 -57 c2 -32
7 -58 12 -58 5 0 10 26 12 58 l3 57 40 6 40 5 -40 5 c-38 4 -40 6 -43 42 -2
20 -7 37 -12 37 -5 0 -10 -17 -12 -37z"/>
<path d="M1570 1931 c0 -5 6 -14 14 -21 8 -6 16 -21 18 -33 3 -20 9 -22 67
-22 63 0 65 1 72 29 5 16 14 33 21 37 27 17 1 16 -34 -1 -36 -17 -37 -17 -43
1 -4 10 -10 19 -14 19 -12 0 -32 -26 -26 -32 3 -3 -4 -8 -15 -11 -15 -4 -20
-2 -17 7 3 8 -5 18 -19 25 -13 6 -24 7 -24 2z"/>
<path d="M1893 1926 c-6 -8 -9 -17 -6 -20 4 -3 1 -6 -6 -6 -7 0 -9 -4 -6 -10
3 -6 -1 -7 -9 -4 -9 3 -13 11 -10 16 7 11 -13 28 -35 28 -12 0 -11 -3 1 -17 9
-10 18 -27 20 -38 4 -23 52 -36 100 -26 22 5 34 14 36 26 2 11 11 28 20 38 15
17 7 22 -22 11 -9 -3 -12 -12 -9 -22 5 -11 2 -14 -10 -9 -11 4 -14 2 -10 -9 3
-7 1 -14 -5 -14 -5 0 -8 10 -8 23 2 22 -10 47 -23 47 -3 -1 -11 -7 -18 -14z"/>
<path d="M1767 1812 c-13 -14 -14 -21 -5 -30 9 -9 8 -12 -5 -12 -9 0 -17 8
-18 18 0 13 -2 12 -9 -5 -5 -13 -14 -23 -20 -23 -14 0 -13 13 2 28 7 7 10 12
8 13 -18 3 -38 8 -55 15 -19 7 -19 7 -2 -13 9 -11 14 -23 10 -26 -3 -4 -1 -7
5 -7 7 0 12 -10 12 -23 0 -37 19 -47 93 -47 80 0 107 11 107 45 0 14 5 25 12
25 6 0 8 3 5 7 -4 3 0 15 10 25 14 15 14 18 1 18 -8 0 -18 -3 -22 -7 -4 -5
-13 -8 -19 -8 -7 0 -11 -10 -9 -23 4 -28 -6 -28 -18 1 -7 17 -9 18 -9 5 -1
-10 -8 -18 -17 -18 -12 0 -14 3 -6 13 9 10 6 17 -8 30 -25 21 -23 21 -43 -1z
m-17 -62 c0 -5 18 -10 40 -10 22 0 40 5 40 10 0 6 5 10 10 10 6 0 10 -6 10
-14 0 -8 5 -16 10 -18 6 -1 -26 -3 -70 -3 -44 0 -75 2 -70 3 6 2 10 10 10 18
0 8 5 14 10 14 6 0 10 -4 10 -10z"/>
<path d="M1594 1658 c-6 -19 -8 -20 -18 -6 -9 12 -17 14 -27 7 -12 -8 -11 -11
4 -20 9 -6 15 -14 12 -20 -4 -5 18 -9 52 -9 37 0 53 3 44 9 -11 7 -9 10 8 16
26 8 27 21 1 28 -11 3 -20 0 -20 -5 0 -6 -8 -4 -18 5 -24 22 -29 21 -38 -5z"/>
<path d="M1946 1658 c-13 -18 -16 -19 -16 -5 0 19 -8 21 -30 7 -13 -9 -13 -12
3 -21 9 -6 15 -14 12 -20 -4 -5 18 -9 50 -9 32 0 54 4 50 9 -3 6 3 14 12 20
16 9 16 12 3 20 -9 7 -18 7 -24 1 -6 -6 -16 -4 -27 6 -15 14 -18 13 -33 -8z"/>
<path d="M1760 1430 c0 -25 4 -30 23 -29 12 0 16 3 10 6 -7 2 -13 16 -13 29 0
13 -4 24 -10 24 -5 0 -10 -13 -10 -30z"/>
<path d="M1808 1453 c6 -2 12 -16 12 -29 0 -13 5 -24 10 -24 6 0 10 9 10 20 0
11 5 20 11 20 5 0 7 5 4 10 -3 6 -18 10 -33 9 -15 0 -21 -3 -14 -6z"/>
<path d="M1729 1428 c-1 -17 -2 -19 -6 -5 -2 9 -9 17 -15 17 -5 0 -7 -7 -4
-16 3 -9 6 -20 6 -25 0 -21 19 -7 29 21 6 18 6 30 0 30 -5 0 -10 -10 -10 -22z"/>
<path d="M1930 1338 c0 -9 -3 -23 -6 -32 -3 -9 -1 -16 5 -16 6 0 11 8 11 18 0
14 2 15 10 2 13 -20 18 -10 9 20 -4 14 -8 18 -8 10 -1 -13 -2 -13 -11 0 -8 13
-10 13 -10 -2z"/>
<path d="M1991 1332 c-16 -29 -14 -39 4 -16 14 19 14 18 15 -3 0 -13 5 -23 10
-23 13 0 12 10 -4 39 -13 24 -14 24 -25 3z"/>
<path d="M1621 1310 c12 -33 24 -38 33 -14 9 24 6 42 -4 19 -9 -19 -9 -19 -16
3 -3 12 -10 22 -15 22 -4 0 -3 -13 2 -30z"/>
<path d="M1019 1050 c-13 -10 -22 -20 -19 -20 57 -12 110 -7 110 9 0 7 -51 31
-65 31 -2 0 -13 -9 -26 -20z m51 0 c21 -13 7 -22 -25 -14 -20 5 -23 9 -13 15
16 11 20 11 38 -1z"/>
<path d="M1253 862 c1 -23 7 -42 12 -42 12 1 8 61 -5 74 -6 6 -9 -5 -7 -32z"/>
<path d="M1447 830 c-47 -40 -59 -63 -51 -96 7 -28 54 -54 98 -54 14 0 28 -5
31 -11 5 -7 -4 -8 -28 -4 -21 4 -37 3 -41 -4 -10 -16 42 -25 70 -12 14 6 36
11 50 11 38 0 154 33 154 43 0 9 -34 5 -77 -8 -18 -6 -22 -3 -25 19 -4 37 -23
32 -24 -6 0 -35 -12 -43 -50 -34 l-25 7 36 34 c30 27 36 40 33 66 -3 36 -36
66 -83 74 -24 5 -38 0 -68 -25z m61 -5 c-6 -28 6 -33 20 -9 8 15 11 15 31 -5
47 -47 6 -111 -72 -111 -78 0 -102 58 -44 104 17 14 37 30 42 36 18 17 27 10
23 -15z"/>
<path d="M1900 2270 c-19 -11 -43 -19 -54 -20 -15 0 -16 -3 -6 -15 12 -14 15
-14 30 0 12 11 19 12 28 3 15 -15 16 -38 1 -38 -8 0 -7 -5 2 -16 12 -14 15
-10 30 32 29 81 26 85 -31 54z"/>
<path d="M970 2184 c-21 -21 -22 -27 -10 -34 8 -5 17 -10 20 -10 3 0 17 -11
32 -25 21 -20 28 -22 37 -11 9 10 7 15 -9 19 -33 8 -23 27 15 27 19 0 35 4 35
9 0 4 -10 6 -23 4 -17 -3 -28 2 -41 21 -21 32 -27 32 -56 0z m39 -8 c9 -10 9
-16 1 -21 -13 -8 -42 14 -34 26 8 13 20 11 33 -5z"/>
<path d="M1965 2185 c-14 -13 -25 -31 -25 -40 0 -18 35 -55 53 -54 6 0 2 7
-10 16 -28 19 -29 44 -4 67 27 25 55 17 59 -17 4 -30 22 -28 22 3 0 20 -35 50
-58 50 -7 0 -24 -11 -37 -25z"/>
<path d="M896 2072 c-14 -28 -14 -29 20 -41 18 -7 41 -19 49 -28 9 -8 17 -14
18 -12 1 2 10 18 19 35 16 29 17 33 1 45 -14 12 -15 11 -10 -6 9 -27 -5 -47
-26 -39 -19 7 -22 20 -7 29 6 4 8 11 5 16 -9 13 -25 11 -22 -3 1 -6 -6 -14
-15 -16 -11 -2 -18 2 -18 12 0 8 8 20 18 25 16 10 16 10 0 11 -10 0 -24 -13
-32 -28z"/>
<path d="M1993 2065 c2 -5 14 -10 28 -10 28 0 41 -41 15 -47 -10 -2 -13 -8 -7
-17 7 -10 18 -4 47 29 22 23 41 46 42 51 2 5 -26 8 -62 7 -38 -2 -65 -7 -63
-13z"/>
<path d="M2140 1990 c0 -11 -43 -31 -72 -33 -20 -1 -17 -25 9 -65 19 -30 59
-26 85 9 18 24 19 28 4 62 -15 36 -26 47 -26 27z m20 -49 c0 -40 -51 -66 -78
-39 -19 19 -14 28 21 43 44 19 57 18 57 -4z"/>
<path d="M851 1971 c-16 -29 -13 -47 7 -48 29 -2 72 -22 72 -33 0 -17 17 -2
23 20 4 17 1 19 -18 14 -21 -5 -24 -2 -27 28 -2 25 -8 34 -25 36 -14 2 -26 -4
-32 -17z m49 -20 c0 -14 -5 -18 -20 -14 -11 3 -20 12 -20 19 0 8 9 14 20 14
13 0 20 -7 20 -19z"/>
<path d="M2176 1854 c-11 -8 -35 -14 -54 -14 -33 0 -33 -1 -27 -32 10 -43 13
-48 33 -48 16 1 16 2 0 14 -24 18 -23 46 2 46 11 0 20 -7 20 -15 0 -8 5 -15
11 -15 6 0 8 9 4 20 -5 16 -2 20 15 20 17 0 21 -5 17 -20 -3 -11 -1 -20 4 -20
10 0 11 37 1 62 -6 15 -9 15 -26 2z"/>
<path d="M790 1751 c0 -14 5 -18 20 -14 11 3 28 2 37 -1 14 -6 10 -11 -22 -29
-51 -29 -54 -43 -10 -45 19 -1 44 -6 55 -12 17 -9 20 -8 20 8 0 15 -6 17 -35
14 -47 -6 -44 11 5 33 22 10 40 22 40 26 0 4 -17 11 -37 14 -21 3 -46 10 -55
16 -14 7 -18 5 -18 -10z"/>
<path d="M2173 1733 c-39 -3 -53 -8 -53 -19 0 -12 4 -13 21 -4 11 6 28 10 37
8 12 -3 5 -10 -23 -25 l-40 -21 28 -11 c16 -6 36 -11 45 -12 11 0 9 -3 -7 -10
-14 -5 -31 -7 -38 -5 -8 3 -13 -2 -13 -15 0 -16 3 -18 19 -9 11 5 36 11 55 12
46 4 47 24 1 32 -48 9 -50 20 -10 42 19 10 35 24 35 31 0 7 -1 12 -2 11 -2 -1
-27 -3 -55 -5z"/>
<path d="M770 1592 c0 -19 3 -23 9 -13 7 10 18 11 54 3 40 -8 46 -7 50 9 4 15
0 17 -24 12 -15 -3 -42 -1 -59 5 -29 10 -30 10 -30 -16z"/>
<path d="M2233 1569 c-6 -6 -32 -10 -57 -8 -36 3 -46 1 -46 -11 0 -12 13 -15
60 -15 55 0 60 2 60 23 0 25 -2 26 -17 11z"/>
<path d="M2140 1480 c0 -11 7 -17 17 -16 12 1 19 -7 21 -23 3 -20 0 -23 -17
-18 -16 4 -21 0 -21 -14 0 -18 2 -18 53 2 58 23 68 30 50 36 -7 3 -33 15 -58
27 -41 21 -45 22 -45 6z"/>
<path d="M857 1419 c-10 -6 -36 -9 -58 -7 -56 5 -46 -22 14 -37 36 -9 34 -18
-8 -38 -47 -23 -44 -33 11 -36 26 0 50 -4 55 -7 5 -3 9 2 9 10 0 11 -8 13 -35
9 -45 -7 -44 2 3 26 l37 19 -28 11 c-16 6 -33 11 -38 11 -6 0 -7 5 -3 11 3 6
19 9 35 7 23 -4 29 -1 29 14 0 21 1 21 -23 7z"/>
<path d="M776 1247 c3 -8 11 -14 17 -14 7 0 26 -1 42 -2 l30 -1 -25 -20 c-14
-11 -31 -20 -37 -20 -7 0 -13 -9 -13 -19 0 -18 5 -16 49 12 28 18 50 35 50 39
1 4 -18 12 -41 18 -24 6 -51 13 -60 16 -13 4 -16 1 -12 -9z"/>
<path d="M2121 1218 c-18 -48 36 -82 59 -38 6 11 17 20 25 20 18 0 20 -27 3
-33 -7 -2 -10 -8 -5 -12 12 -14 29 11 25 36 -4 32 -42 38 -58 10 -14 -27 -40
-27 -40 -1 0 11 5 20 10 20 6 0 10 5 10 10 0 19 -21 10 -29 -12z"/>
<path d="M854 1124 c3 -9 6 -18 6 -21 0 -3 7 0 15 7 17 14 35 5 35 -19 0 -25
-20 -41 -52 -41 -34 0 -47 24 -29 52 11 17 10 19 -6 16 -13 -3 -17 -12 -16
-32 3 -38 20 -56 54 -56 35 0 59 24 59 59 0 33 -17 51 -48 51 -18 0 -23 -4
-18 -16z"/>
<path d="M2077 1026 c-2 -6 12 -16 32 -22 l36 -12 -42 -1 c-24 -1 -43 -5 -43
-10 0 -5 15 -21 33 -36 29 -24 30 -26 7 -20 -14 4 -30 11 -36 16 -6 5 -14 6
-17 2 -11 -10 -8 -35 2 -28 5 3 29 -1 52 -9 24 -8 45 -13 48 -10 3 2 -11 20
-29 39 l-34 35 47 0 c26 0 47 3 47 8 0 13 -99 60 -103 48z"/>
<path d="M931 990 c21 -17 22 -21 9 -30 -18 -12 -36 -7 -32 9 1 6 -5 11 -14
11 -14 0 -14 -3 -3 -16 10 -13 10 -17 -2 -25 -24 -15 -32 -10 -27 16 5 24 -5
34 -16 16 -7 -10 16 -71 26 -71 4 0 8 4 8 9 0 12 67 34 80 26 13 -8 13 1 -2
42 -8 22 -19 33 -31 33 -17 0 -17 -2 4 -20z"/>
<path d="M966 895 c-5 -18 -13 -25 -32 -25 -31 0 -40 -22 -23 -62 7 -17 15
-26 17 -19 5 16 78 52 87 43 5 -4 5 1 2 11 -4 10 -7 20 -7 23 0 2 -16 -8 -36
-21 -41 -28 -64 -32 -64 -11 0 18 27 29 36 15 7 -12 44 38 44 59 0 22 -18 13
-24 -13z"/>
<path d="M2015 880 c-4 -6 1 -18 11 -25 18 -13 18 -15 2 -31 -13 -14 -20 -15
-31 -5 -12 9 -16 8 -21 -5 -3 -8 -6 -16 -6 -17 0 -1 10 -2 23 -2 12 -1 39 -4
60 -8 20 -5 37 -4 37 1 0 19 -68 103 -75 92z"/>
<path d="M1930 755 c-10 -12 -10 -15 3 -15 9 0 20 -6 24 -13 4 -8 16 -16 26
-20 21 -8 23 -37 2 -37 -9 0 -20 11 -25 25 -7 19 -17 25 -40 25 -16 0 -30 -5
-30 -11 0 -5 3 -8 8 -6 13 8 52 -12 52 -27 0 -23 27 -26 54 -5 29 23 34 39 12
39 -8 0 -26 14 -39 30 -30 35 -30 35 -47 15z"/>
<path d="M1085 709 c-4 -6 -4 -26 -1 -45 6 -27 4 -34 -9 -34 -8 0 -15 7 -15
15 0 8 -4 15 -10 15 -15 0 -12 -16 6 -34 29 -30 55 -12 51 35 -2 40 13 51 29
19 8 -14 14 -18 19 -10 4 6 -1 20 -11 31 -19 21 -49 25 -59 8z"/>
<path d="M1822 664 c-12 -8 -22 -23 -21 -32 0 -14 3 -13 16 6 20 29 49 28 68
-2 23 -35 4 -71 -33 -61 -22 5 -24 4 -13 -9 12 -14 16 -14 42 0 21 11 29 22
29 42 0 54 -48 84 -88 56z"/>
<path d="M1176 640 c-3 -16 -15 -39 -27 -51 -17 -17 -19 -23 -8 -30 16 -10 35
-12 26 -3 -7 8 16 56 37 76 12 13 11 16 -4 26 -15 9 -19 7 -24 -18z"/>
<path d="M1740 618 c-15 -6 -20 -12 -12 -15 15 -6 44 -72 36 -84 -6 -10 19
-13 28 -4 3 3 -3 22 -14 43 -10 20 -17 45 -14 55 2 9 3 17 3 16 -1 0 -13 -5
-27 -11z"/>
<path d="M1234 605 c-4 -8 -4 -21 -1 -29 3 -7 1 -18 -5 -24 -16 -16 -3 -38 32
-50 21 -8 29 -8 24 -1 -8 14 25 89 40 90 17 1 -46 28 -67 29 -10 0 -20 -7 -23
-15z m53 -11 c8 -21 -13 -42 -28 -27 -13 13 -5 43 11 43 6 0 13 -7 17 -16z"/>
<path d="M1350 584 c0 -3 5 -15 11 -26 8 -14 8 -23 0 -31 -15 -15 -14 -47 2
-51 59 -19 63 -17 59 25 -3 23 1 46 7 52 16 16 13 27 -8 27 -14 0 -18 -5 -14
-19 8 -32 -14 -33 -27 -1 -11 26 -30 41 -30 24z m50 -84 c0 -11 -7 -20 -15
-20 -8 0 -15 9 -15 20 0 11 7 20 15 20 8 0 15 -9 15 -20z"/>
<path d="M1504 533 c-8 -21 -19 -46 -24 -55 -8 -15 -6 -18 10 -18 12 0 17 5
14 13 -3 8 0 27 6 43 l12 29 14 -34 c8 -18 11 -37 8 -42 -3 -5 4 -9 16 -9 12
0 20 3 18 8 -2 4 -14 28 -26 55 -12 26 -24 47 -27 47 -3 0 -13 -17 -21 -37z"/>
</g>
</svg>
